PathFileType	4	(X/Y/Z)	Patient4_TMGait_0pt4_03_right_41.trc.trc
DataRate	CameraRate	NumFrames	NumMarkers	Units	OrigDataRate	OrigDataStartFrame	OrigNumFrames
75.268817204301	75.268817204301	6	33	mm	75.268817204301	89	       141
Frame#	Time	Sacral			L.Shoulder			Chest			R.Shoulder			Neck			R.ASIS			L.ASIS			R.Thigh.Superior			R.Thigh.Lateral			R.Thigh.Inferior			R.Patella			L.Thigh.Superior			L.Thigh.Lateral			L.Thigh.Inferior			L.Patella			L.Shank.Superior			L.Shank.Lateral			L.Shank.Inferior			R.Shank.Superior			R.Shank.Lateral			R.Shank.Inferior			R.Heel			R.Midfoot.Superior			R.Midfoot.Lateral			R.Toe			L.Heel			L.Midfoot.Lateral			L.Midfoot.Superior			L.Toe			L.Elbow			L.Wrist			R.Elbow			R.Wrist			
		X1	Y1	Z1	X2	Y2	Z2	X3	Y3	Z3	X4	Y4	Z4	X5	Y5	Z5	X6	Y6	Z6	X7	Y7	Z7	X8	Y8	Z8	X9	Y9	Z9	X10	Y10	Z10	X11	Y11	Z11	X12	Y12	Z12	X13	Y13	Z13	X14	Y14	Z14	X15	Y15	Z15	X16	Y16	Z16	X17	Y17	Z17	X18	Y18	Z18	X19	Y19	Z19	X20	Y20	Z20	X21	Y21	Z21	X22	Y22	Z22	X23	Y23	Z23	X24	Y24	Z24	X25	Y25	Z25	X26	Y26	Z26	X27	Y27	Z27	X28	Y28	Z28	X29	Y29	Z29	X30	Y30	Z30	X31	Y31	Z31	X32	Y32	Z32	X33	Y33	Z33	

89	54.829142857143	965.233664271959	1006.103678799487	456.760167368613	1122.421376629250	1422.339738158153	240.639553472792	1242.357842380478	1366.048285179233	393.736770055044	1176.120045920536	1448.931381319243	571.020430552067	1122.615731063375	1493.819931069463	393.207363857233	1199.939247966370	943.143035065003	556.938087443441	1170.127158083195	959.193811439411	285.730646266987	1236.777796273482	737.313646754999	540.590672748212	1160.458231600267	629.983990228929	614.109011858034	1237.387659442745	569.186981399019	538.883974221995	1229.937172166736	462.863628988493	563.386390038087	1234.741210598514	758.654659023856	311.330943044571	1154.724704582477	635.360493863173	254.967643905694	1251.725956797256	565.976487174115	309.957021955999	1258.724165206456	494.952196892100	317.242223069292	1231.369325175057	420.700855356804	311.635356794760	1139.411448162794	305.749075218001	264.866942169859	1195.822399675345	194.064156954822	331.720992801775	1155.260801483480	393.996910719979	573.242061844068	1038.246111326829	350.550649868591	639.198175916408	1026.069415919366	240.773154855250	590.990790436178	826.238481760444	162.472808407363	572.525459663086	1000.018592331856	123.016405105907	606.803455129880	893.862582059265	111.782483462335	645.040458701817	1077.894382628182	32.710589728300	632.627310005452	1072.421166331603	38.950496625835	380.802246859971	1141.275883235095	35.896840997983	295.891872277185	1225.757858471666	97.231405267737	318.624841801769	1352.480169834410	45.851227666986	282.291893038352	1049.979272080196	1067.608631007137	156.002554642069	1120.434535241128	816.292023853647	134.253508485540	1243.534552074176	1110.097183470178	696.563400918592	1466.167616337264	1020.218882207807	608.193943074814	
90	54.842428571429	964.633696283288	1005.730357233193	452.863655592426	1123.649456376558	1422.374024954755	237.267994780008	1242.109332782015	1366.222608835002	391.550484921972	1173.993368160942	1448.945473027417	568.263018835197	1122.379544789495	1493.878741812807	389.829665649084	1198.965953330879	943.436165176603	554.601149962428	1170.746686313797	959.286448030803	283.245269377392	1241.317211219780	739.977797775397	538.403870715488	1167.656741074419	631.069149183743	611.982959485086	1246.676725125646	571.710806080098	537.249938625000	1240.548961988401	464.352311031085	562.062765795328	1234.001603672471	757.798819162858	308.410707058442	1153.124275725980	635.096228375387	252.549011721169	1249.473984878054	565.135451205820	307.688235190032	1255.905479106887	494.147637317752	315.245265863217	1228.199568681309	419.934592230092	309.980421560330	1135.670742751040	305.293799268092	263.466288666183	1191.213240390431	193.588508699377	331.016592968212	1164.429532054550	395.862087615025	571.751491422848	1045.899232132236	355.816636015819	637.334789260318	1031.279851138676	246.098009822391	589.893771740791	829.830844364552	175.053760973771	570.783599615216	1001.832926379714	127.950729453544	605.868106746246	894.866415775369	121.562955969801	643.716111274274	1075.125288687349	32.349956618794	632.457113941438	1067.076194341084	38.948422149427	380.725728228154	1135.902425506198	35.796095200256	295.770235143129	1220.434322024014	97.058314403689	318.451781359598	1347.191626710700	45.523007773569	282.189265024481	1054.307454478107	1067.466208638045	150.299121014684	1130.524992676703	817.687654280091	128.402053041945	1234.566034739734	1108.523000184513	694.431381907716	1452.309322237114	1001.681227664741	611.266557908150	
91	54.855714285714	963.999009157637	1005.316191711143	449.189160858817	1124.836846235606	1422.354266622748	234.125181623737	1241.817210776403	1366.330834703127	389.578075859183	1171.841021143634	1448.885457903177	565.715840140433	1122.148058087190	1493.903985071735	386.657764867965	1197.950669025826	943.679444509466	552.417130501207	1171.221151284129	959.384886411911	280.900003168745	1245.593531306016	742.803824334358	536.212512499030	1174.604299319841	632.418957754648	609.949979086383	1255.599316152445	574.565039001135	535.677675271901	1250.914960907363	466.270108698087	560.687790670632	1233.187975656612	756.984904799339	305.579821607571	1151.448016729181	634.827662006023	250.238665104906	1247.195485447297	564.311888225686	305.479432669079	1253.091981672488	493.356693965045	313.294488566986	1225.018571794461	419.186601293988	308.383695003185	1131.896113027963	304.875563670445	262.135388303816	1186.586192611489	193.142754224141	330.341854102620	1173.563352346789	398.037609073001	570.199938134167	1053.757792267619	361.023740077042	635.409878079082	1036.923865357537	251.422252129008	588.605351643705	834.266796288708	186.902211856072	568.803365648455	1004.458369771055	133.087956906069	604.762734682473	896.871064473603	131.022672533891	642.176142563574	1073.520908499265	32.388869962340	632.127406142008	1061.738207742851	38.957086611520	380.635150849198	1130.539621141428	35.711558982904	295.643727638857	1215.115726365092	96.903085574447	318.274833315951	1341.902803195457	45.238285057471	282.087652638886	1059.060389268778	1067.297457542357	144.614581167517	1140.711268530173	819.102146236837	122.623554199605	1225.317059962258	1106.994440113795	692.533067671251	1436.880542596326	983.412616030721	615.223810669525	
92	54.869000000000	963.347198762997	1004.926917341016	445.736161572479	1125.959319919049	1422.341496465692	231.225096253718	1241.481747695590	1366.430660681693	387.811702075812	1169.693072768787	1448.806001655741	563.377979678733	1121.915298081984	1493.940481257574	383.710003541133	1196.917465638173	943.950454534973	550.377471946537	1171.571629953597	959.521403117876	278.689261610574	1249.513185667385	745.783159374212	534.000889272239	1181.203810001179	634.052610888938	608.019721351540	1264.032861192379	577.746724299689	534.154801904787	1260.933476909369	468.616449685236	559.303682616283	1232.317613830277	756.221710786383	302.861835081615	1149.663670887735	634.565323948656	248.092210859859	1244.852385166610	563.503314919985	303.382931020589	1250.239218349660	492.589793896820	311.468736645271	1221.792203910890	418.475797728197	306.900685175218	1128.074232690956	304.508487300196	260.917232383385	1181.935077884006	192.736999259987	329.722474866792	1182.585080608766	400.513454173665	568.639256264693	1061.732742855319	366.066056344213	633.458761813110	1043.027782084518	256.592840279924	587.172016830359	839.541868053979	197.583188943123	566.654023871809	1008.036983756614	138.214620199786	603.518077987476	899.993896280312	139.768323080012	640.457592084586	1073.408068194249	32.906773323632	631.593057518209	1056.408491972107	38.976973525741	380.530947122787	1125.190544524082	35.646753855554	295.516110579283	1209.804776335977	96.769587985677	318.101209487994	1336.615174217900	44.998722482602	281.988362418292	1064.242396384199	1067.163996835333	139.006988030017	1150.953221807307	820.570427462002	116.972496985447	1215.805353796621	1105.597270981829	690.884465598064	1419.892346255524	965.623957843430	620.055866833003	
93	54.882285714286	962.691190765922	1004.622898393764	442.495926356958	1127.010943205852	1422.392575093793	228.570691709506	1241.109034255563	1366.572641108437	386.241552201435	1167.575018219342	1448.756332799685	561.243188691021	1121.678904711485	1494.028650640969	380.997198410719	1195.885990853704	944.322673190549	548.481089783028	1171.823223580575	959.718060842158	276.611911539445	1253.011754063330	748.901191216367	531.769080980931	1187.389166310941	635.973260387981	606.201782100815	1271.886935409103	581.236382498239	532.664303397988	1270.521839321435	471.377461238153	557.938596354773	1231.396695733370	755.508688611313	300.293212173008	1147.747196524238	634.323495792635	246.153151998106	1242.400784642416	562.707774814259	301.453997113273	1247.292573365151	491.855507869892	309.836963205377	1218.478320799426	417.818757981729	305.577558434975	1124.185326815326	304.201104307915	259.846712134209	1177.251754607665	192.378400058383	329.179061310903	1191.439027714180	403.260648301602	567.111508697386	1069.759294445038	370.826617507809	631.521300645596	1049.631132305656	261.446219154360	585.649648698948	845.655692855383	206.697753094804	564.423434386458	1012.711210893892	143.101099260045	602.178092276757	904.344423537482	147.424641570671	638.616321416979	1075.100305515089	33.917391049917	630.830902006686	1051.084776981552	39.006863452411	380.416467045057	1119.854239697121	35.602535753089	295.391820949871	1204.500763116336	96.658502119806	317.937755378416	1331.327413047811	44.801187566066	281.892499149724	1069.823281754923	1067.127922716839	133.536046930173	1161.215758276135	822.136814753623	111.503902427072	1206.065589861891	1104.417486363124	689.490315418525	1401.402230963717	948.556583298473	625.703633000104	
94	54.895571428571	962.039151158068	1004.452054984232	439.453408998404	1128.003865913958	1422.553566149247	226.155819398693	1240.710975156450	1366.794381742329	384.857536782462	1165.506928268321	1448.775251794143	559.301433914867	1121.441503293050	1494.200362353212	378.522798120506	1194.869326153631	944.853518051152	546.731390806892	1172.001874622844	959.985882921744	274.670689560126	1256.056518824564	752.137251203032	529.533196637931	1193.125662425139	638.167473157457	604.504451237176	1279.103476746243	584.997519022037	531.186385802088	1279.616462029371	474.525681549781	556.604588855428	1230.420409599026	754.838952913052	297.921983773198	1145.684924173924	634.118260238556	244.448184319059	1239.797247468031	561.924939078324	299.744644230353	1244.194789672860	491.160473616939	308.451929585612	1215.033136491313	417.228888026589	304.446832845558	1120.207388272043	303.956525188340	258.945905450847	1172.527306273921	192.071198047043	328.725297325139	1200.088312845316	406.232273619147	565.644931914276	1077.796998533626	375.182691476855	629.639172440250	1056.778431362136	265.820367923855	584.098556205336	852.614574776640	213.917109507222	562.208142912118	1018.610425680340	147.523695930786	600.804756312354	910.013331296641	153.668634289878	636.723448060852	1078.859137264393	35.353080775908	629.851849867459	1045.762563060092	39.044308463196	380.296849069453	1114.527199702300	35.577594466104	295.275026321889	1199.200738757512	96.568190751565	317.790054759232	1326.036741124197	44.639728737888	281.801008558678	1075.740429438935	1067.243953299126	128.258560063532	1171.470524619079	823.849989764720	106.270915179067	1196.145397129483	1103.531360811180	688.345489360756	1381.521496146607	932.470520519223	632.058707500037	
